<?xml version="1.0" standalone="no"?>
<!DOCTYPE svg PUBLIC "-//W3C//DTD SVG 20010904//EN"
 "http://www.w3.org/TR/2001/REC-SVG-20010904/DTD/svg10.dtd">
<svg version="1.0" xmlns="http://www.w3.org/2000/svg"
 width="320.000000pt" height="320.000000pt" viewBox="0 0 320.000000 320.000000"
 preserveAspectRatio="xMidYMid meet">
<metadata>
Created by potrace 1.11, written by Peter Selinger 2001-2013
</metadata>
<g transform="translate(0.000000,320.000000) scale(0.100000,-0.100000)"
fill="#000000" stroke="none">
<path d="M0 1600 l0 -1600 1600 0 1600 0 0 1600 0 1600 -1600 0 -1600 0 0
-1600z m1313 713 c13 -43 98 -321 188 -618 l164 -540 3 618 2 619 403 -5 c368
-4 408 -6 475 -25 191 -54 284 -142 313 -297 26 -143 -41 -322 -148 -394 -21
-14 -40 -30 -41 -34 -1 -4 29 -24 67 -43 135 -67 201 -181 201 -343 0 -182
-83 -315 -245 -396 -87 -43 -162 -63 -285 -75 -93 -9 -1080 -14 -1080 -6 0 7
-70 308 -76 329 -5 15 -25 17 -233 17 l-228 0 -39 -172 -40 -173 -218 -3
c-204 -2 -217 -1 -212 15 21 71 460 1518 472 1556 l16 47 258 0 259 0 24 -77z"/>
<path d="M981 1928 c-31 -146 -95 -424 -107 -460 -5 -17 6 -18 145 -18 100 0
151 4 151 11 0 5 -13 63 -29 127 -16 64 -48 201 -72 305 -23 103 -45 187 -49
187 -4 0 -21 -69 -39 -152z"/>
<path d="M2100 1915 l0 -155 108 0 c92 0 114 3 152 23 66 33 85 66 85 144 0
60 -2 67 -31 93 -40 35 -107 50 -224 50 l-90 0 0 -155z"/>
<path d="M2100 1275 l0 -177 143 4 c128 3 147 6 192 28 64 32 90 75 90 152 0
70 -22 103 -89 137 -42 21 -66 25 -192 29 l-144 5 0 -178z"/>
</g>
</svg>
